<?xml version="1.0" standalone="yes"?>
<svg xmlns="http://www.w3.org/2000/svg" width="722" height="438">
<path style="fill:#fefefe; stroke:none;" d="M0 0L0 438L722 438L722 0L0 0z"/>
<path style="fill:#040404; stroke:none;" d="M273.603 9.02777C270.4 11.5646 272 20.3675 272 24L272 67L272 123C272 129.135 269.87 140.127 272.603 145.682C273.791 148.097 276.692 147.952 279.001 147.995C284.33 148.096 289.67 148 295 148L353 148L368 147.999C369.992 147.986 372.719 148.301 374.397 146.972C377.6 144.435 376 135.632 376 132L376 89L376 33C376 26.8647 378.13 15.8726 375.397 10.3179C374.209 7.90344 371.308 8.04828 368.999 8.00464C363.67 7.9039 358.33 8 353 8L295 8L280 8.00076C278.008 8.0145 275.281 7.6987 273.603 9.02777M7 147C16.4813 148.76 26.3863 148 36 148L84 148C89.9995 148 96.0006 148.041 102 147.999C104.209 147.984 107.417 148.361 108.972 146.397C110.912 143.948 110 138.91 110 136L110 110L110 10C102.005 10 93.8381 9.39301 86 11.2361C50.6962 19.5377 21.0082 48.482 10.7207 83C4.50809 103.845 5.30647 125.541 7 147M416 10C416 20.6643 414.571 32.4752 416.326 43C420.505 68.0777 439.756 92.3516 462 103.87C471.433 108.754 482.368 112.766 493 113.829C505.506 115.08 517.602 113.568 530 116.759C561.334 124.825 586.888 146.279 601.247 175C606.762 186.032 611.843 199.505 611.996 212C612.171 226.234 611.222 239.386 606.644 253C595.27 286.823 566.321 313.71 532 322.985C520.099 326.202 509.017 324.887 497 326.174C484.103 327.554 470.121 331.693 459 338.464C438.042 351.223 420.325 374.518 416.325 399C414.705 408.916 416 419.959 416 430L491 430C503.43 430 516.658 431.292 529 429.816C554.747 426.735 581.131 418.571 604 406.208C629.606 392.366 652.309 373.599 670.69 351C720.068 290.289 729.646 203.889 697.688 133C682.435 99.1644 657.009 69.3894 627 47.7454C597.833 26.7088 561.25 15.1072 526 10.2091C514.088 8.55392 501.026 10 489 10L416 10M7.60339 177.028C3.84941 180.001 6 192.619 6 197L6 257C6 262.33 5.90388 267.67 6.00463 272.999C6.04827 275.308 5.90346 278.209 8.3179 279.397C10.7453 280.591 14.3798 280 17 280L34 280L97 280L322 280L365 280C384.365 280 401.919 279.987 416.961 265.829C447.216 237.352 433.178 186.91 393 176.76C383.423 174.341 371.839 176 362 176L300 176L102 176L33 176L15 176C12.764 176.005 9.492 175.532 7.60339 177.028z"/>
<path style="fill:#fefefe; stroke:none;" d="M56 216L56 222L69 222L69 248L76 248C76 242.003 75.8918 235.996 76.0046 230C76.0514 227.516 75.998 224.576 78.3179 223.028C80.8794 221.318 85.0756 222 88 222L88 216L56 216M118 236L120 236C119.72 231.269 120.786 226.094 117.57 222.13C111.642 214.821 97.7619 213.896 92.0895 222.224C89.8256 225.547 89.8689 230.146 90.0394 234C90.4048 242.26 95.6706 247.235 104 247.786C111.148 248.259 118.816 243.697 118 236M134 216C131.884 220.182 127.855 223.446 126.558 228.09C122.667 242.011 138.863 254.315 150.945 245.347C159.555 238.957 157.955 219.893 146.96 216.72C142.846 215.533 138.234 216 134 216M162 216C162 223.31 161.682 230.699 162.04 238C162.189 241.042 162.614 244.864 165.419 246.682C170.738 250.129 181.868 248 188 248L188 242L168 242L168 216L162 216M217 239C213.066 240.997 209.574 242.692 205 241.698C201.076 240.844 198.1 238.453 194 238C194.246 240.79 194.457 244.124 196.703 246.142C201.726 250.655 216.824 248.839 221.057 244.177C228.139 236.377 220.435 228.454 212 228.04C208.015 227.845 203.99 228 200 228C201.583 218.075 215.152 222.587 222 224C223.053 214.025 203.378 213.281 197.279 217.858C193.167 220.943 193.145 228.441 196.854 231.852C202.893 237.404 211.23 231.426 217 239M252 216C252 224.917 248.614 241.879 258.326 246.91C263.553 249.618 272.245 248 278 248L278 242C273.48 242 267.137 243.124 263.019 240.972C255.203 236.887 258 223.313 258 216L252 216M276 216L276 222C278.924 222 283.121 221.318 285.682 223.028C288.002 224.576 287.949 227.516 287.995 230C288.108 235.996 288 242.003 288 248L294 248C294 242.003 293.892 235.996 294.005 230C294.051 227.516 293.998 224.576 296.318 223.028C299.289 221.045 304.592 222 308 222L308 216L276 216M314 216L314 248C323.158 248 332.267 249.244 339.906 243.16C348.259 236.508 344.369 221.785 335.576 217.679C329.211 214.707 320.843 216 314 216z"/>
<path style="fill:#040404; stroke:none;" d="M140.035 220.782C126.23 220.452 127.777 243.861 141.015 243.599C155.888 243.304 153.2 221.096 140.035 220.782M318 242C328.069 242 337.387 241.735 340 230C336.721 227.555 333.862 224.644 332 221C329.14 220.885 325.794 220.073 323.019 220.983C315.47 223.458 318 235.86 318 242M102.015 222.577C91.5564 225.547 96.4311 244.47 106.715 241.467C118.566 238.006 113.616 219.283 102.015 222.577M110 432L110 340L110 317C109.995 314.58 110.564 310.745 108.397 309.028C105.302 306.577 97.7313 308 94 308L55 308L19 308C15.8492 308 9.26102 306.784 7.02778 309.603C4.82494 312.385 6 318.672 6 322C6 333.357 6.56991 344.04 9.88426 355C23.4504 399.861 62.5049 432 110 432M272 308L272 432L347 432L366 432C368.469 431.999 372.311 432.624 374.397 430.972C376.565 429.255 375.995 425.42 376 423L376 401L376 342C376 330.799 377.05 319.042 375 308L272 308z"/>
</svg>
