<?xml version="1.0" standalone="yes"?>
<svg xmlns="http://www.w3.org/2000/svg" width="724" height="440">
<path style="fill:#fefefe; stroke:none;" d="M161 0L162 1L161 0M525 4L526 5L525 4M482 6L483 7L482 6M379 8L380 9L379 8z"/>
<path style="fill:#000000; stroke:none;" d="M274.603 10.0278C271.4 12.5646 273 21.3676 273 25L273 68L273 124C273 130.135 270.87 141.127 273.603 146.682C275.943 151.436 291.422 149 296 149L354 149C359.088 149 371.275 151.237 375.397 147.972C378.6 145.435 377 136.632 377 133L377 90L377 34C377 27.8647 379.13 16.8726 376.397 11.3179C374.057 6.564 358.578 9 354 9L296 9C290.912 9 278.725 6.76312 274.603 10.0278z"/>
<path style="fill:#fefefe; stroke:none;" d="M685 9L686 10L685 9M177 10L178 11L177 10M533 10L534 11L533 10z"/>
<path style="fill:#000000; stroke:none;" d="M8 148C32.498 151.096 58.302 149 83 149C89.0342 149 104.569 151.795 109.397 147.972C113.846 144.448 111 126.38 111 121L111 42C111 36.1988 114.132 15.7783 109.397 12.0278C106.788 9.96155 101.112 10.9857 98 11.0008C84.8601 11.0641 72.368 16.6241 61 22.7701C13.4666 48.4686 4.13119 98.9771 8 148M417 11C417 21.6657 415.573 33.4898 417.465 44C421.995 69.1744 440.395 93.2364 463 104.869C485.463 116.428 507.549 112.008 531 117.748C572.224 127.84 612.466 168.638 612.996 213C613.605 263.883 583.777 310.263 533 323.985C508.107 330.713 483.396 325.22 460 339.464C439.12 352.176 421.315 375.578 417.325 400C415.705 409.916 417 420.959 417 431C481.31 431 547.365 438.479 606 406.691C631.211 393.024 653.597 374.246 671.69 352C747.638 258.622 724.214 118.14 628 48.7454C565.387 3.5853 489.764 11 417 11z"/>
<path style="fill:#fefefe; stroke:none;" d="M598 12L599 13L598 12M67 13L68 14L67 13M130 13L131 14L130 13M718 14L719 15L718 14M261 18L262 19L261 18M134 26L135 27L134 26M717 28L718 29L717 28M687 30L688 31L687 30M206 31L207 32L206 31M658 32L659 33L658 32M180 34L181 35L180 34M398 34L399 35L398 34M634 35L635 36L634 35M406 39L407 40L406 39M707 46L708 47L707 46M142 48L143 49L142 48M401 49L402 50L401 49M411 49L412 50L411 49M9 51L10 52L9 51M198 51L199 52L198 51M151 54L152 55L151 54M650 61L651 62L650 61M174 67L175 68L174 67M125 72L126 73L125 72M191 76L192 77L191 76M675 78L676 79L675 78M121 82L122 83L121 82M152 85L153 86L152 85M670 86L671 87L670 86M258 90L259 91L258 90M182 96L183 97L182 96M378 97L379 98L378 97M438 101L439 102L438 101M536 119L537 120L536 119M183 128L184 129L183 128M111 133L112 134L111 133M381 133L382 134L381 133M119 134L120 135L119 134M703 137L704 138L703 137M112 148L113 149L112 148M524 148L525 149L524 148M478 150L479 151L478 150M391 153L392 154L391 153M113 157L114 158L113 157M134 158L135 159L134 158M571 160L572 161L571 160M511 161L512 162L511 161M302 163L303 164L302 163M362 163L363 164L362 163M66 169L67 170L66 169M533 169L534 170L533 169M87 170L88 171L87 170M346 173L347 174L346 173M188 174L189 175L188 174M193 174L194 175L193 174M121 175L122 176L121 175M323 175L324 176L323 175M45 176L46 177L45 176M335 176L336 177L335 176M521 176L522 177L521 176z"/>
<path style="fill:#000000; stroke:none;" d="M8.74228 178.028C4.85935 181.169 7 193.472 7 198L7 258C7 262.578 4.56401 278.057 9.3179 280.397C15.522 283.449 28.1274 281 35 281L98 281L324 281C353.99 281 395.648 289.142 418.91 265.91C447.824 237.034 433.659 187.779 394 177.76C384.423 175.341 372.839 177 363 177L301 177L103 177L34 177C28.2383 177 13.3254 174.32 8.74228 178.028z"/>
<path style="fill:#fefefe; stroke:none;" d="M547 182L548 183L547 182M422 188L423 189L422 188M466 189L467 190L466 189M3 201L4 202L3 201M485 202L486 203L485 202M549 205L550 206L549 205M514 210L515 211L514 210M560 213L561 214L560 213M565 216L566 217L565 216z"/>
<path style="fill:#ffffff; stroke:none;" d="M57 217L57 223L70 223L70 249L77 249C77 236.248 72.8875 223.002 89 223L89 217L57 217M119 237L121 237C120.675 232.204 121.795 227.158 118.566 223.094C107.3 208.914 90.0984 220.871 91.044 236C92.0424 251.973 120.721 253.468 119 237M138.004 217.558C118.634 222.701 126.809 254.058 147 248.566C165.286 243.593 157.601 212.354 138.004 217.558M163 217C163 224.349 159.717 242.337 166.228 247.258C171.416 251.178 182.796 249 189 249L189 243C184.246 243 175.403 244.698 171.318 241.972C166.284 238.613 169 222.458 169 217L163 217M195 239C195.701 251.803 218.431 253.535 223.82 242.985C231.806 227.35 208.696 231.842 203.377 227.977C197.054 223.383 213.038 223.007 215 223.325C217.699 223.763 220.289 224.601 223 225C224.094 214.622 201.64 213.747 196.742 220.228C185.246 235.443 210.269 232.583 214.704 236.603C220.81 242.137 207.152 243.305 204 242.081C200.8 240.838 198.477 239.385 195 239M253 217C253 225.873 249.499 242.909 259.015 247.821C264.392 250.596 273.092 249 279 249L279 243C274.48 243 268.137 244.124 264.019 241.972C256.203 237.887 259 224.313 259 217L253 217M277 217L277 223C293.112 223.002 289 236.248 289 249L295 249C295 243.542 292.284 227.387 297.318 224.028C300.289 222.045 305.592 223 309 223L309 217L277 217M315 217L315 249C322.547 249 331.337 250.459 337.996 246.285C347.911 240.071 347.872 224.154 336.999 218.688C330.699 215.522 321.857 217 315 217z"/>
<path style="fill:#fefefe; stroke:none;" d="M80 220L81 221L80 220M142 220L143 221L142 220z"/>
<path style="fill:#000000; stroke:none;" d="M141 221.786C126.614 222.939 129.54 246.351 142.999 244.472C156.523 242.585 153.731 220.766 141 221.786M319 243C322.876 243 327.188 243.519 330.996 242.721C353.272 238.056 327.921 211.441 320.028 225.133C317.426 229.646 319 237.929 319 243M103.04 223.863C92.4374 228.193 97.9482 246.634 108.96 242.137C119.563 237.807 114.052 219.366 103.04 223.863z"/>
<path style="fill:#fefefe; stroke:none;" d="M343 235L344 236L343 235M516 237L517 238L516 237M605 249L606 250L605 249M550 252L551 253L550 252M599 256L600 257L599 256M425 273L426 274L425 273M581 279L582 280L581 279M544 280L545 281L544 280M303 281L304 282L303 281M137 282L138 283L137 282M91 284L92 285L91 284M257 284L258 285L257 284M80 285L81 286L80 285M529 285L530 286L529 285M485 293L486 294L485 293M3 294L4 295L3 294M559 294L560 295L559 294M225 296L226 297L225 296M325 297L326 298L325 297M133 298L134 299L133 298M330 298L331 299L330 298M485 301L486 302L485 301M543 301L544 302L543 301M26 302L27 303L26 302M395 304L396 305L395 304M43 305L44 306L43 305M528 305L529 306L528 305M59 307L60 308L59 307z"/>
<path style="fill:#000000; stroke:none;" d="M111 433L111 341C111 335.059 114.227 313.853 109.397 310.028C106.302 307.577 98.7313 309 95 309L56 309L20 309C16.8492 309 10.261 307.784 8.02778 310.603C5.82494 313.385 7 319.672 7 323C7 334.279 7.59302 345.116 10.8843 356C24.4504 400.861 63.5049 433 111 433M273 433L345 433C352.854 433 367.615 435.874 374.682 432.397C379.834 429.862 377 410.145 377 405L377 336C377 329.675 379.501 315.844 375.012 310.742C371.605 306.871 359.72 309 355 309L296 309C291.33 309 277.163 306.645 274.028 310.603C269.543 316.266 273 335.839 273 343L273 433z"/>
<path style="fill:#fefefe; stroke:none;" d="M721 315L722 316L721 315M133 317L134 318L133 317M195 323L196 324L195 323M708 339L709 340L708 339M175 340L176 341L175 340M196 340L197 341L196 340M669 356L670 357L669 356M173 358L174 359L173 358M272 360L273 361L272 360M128 362L129 363L128 362M657 367L658 368L657 367M156 372L157 373L156 372M236 373L237 374L236 373M224 379L225 380L224 379M165 381L166 382L165 381M379 382L380 383L379 382M666 384L667 385L666 384M382 388L383 389L382 388M201 390L202 391L201 390M414 393L415 394L414 393M29 396L30 397L29 396M396 400L397 401L396 400M6 402L7 403L6 402M401 413L402 414L401 413M720 414L721 415L720 414M111 415L112 416L111 415M230 416L231 417L230 416M222 417L223 418L222 417M225 418L226 419L225 418M705 418L706 419L705 418M385 423L386 424L385 423M35 426L36 427L35 426M115 428L116 429L115 428M167 428L168 429L167 428M698 428L699 429L698 428M83 434L84 435L83 434M650 436L651 437L650 436z"/>
</svg>
